# Blender v2.72 (sub 0) OBJ File: 'ForestTutorial.blend'
# www.blender.org
mtllib ring.mtl
o Circle.008_Circle.000_Circle.008_Circle.012
v -0.085384 0.009605 0.016403
v -0.046751 0.076728 0.016608
v -0.038362 0.062243 0.016652
v 0.060083 0.005581 0.017172
v 0.076822 0.005603 0.017261
v 0.038189 -0.061521 0.017056
v -0.034711 0.064357 0.016671
v -0.043100 0.078843 0.016627
v 0.034347 0.078947 0.017036
v 0.034538 -0.063635 0.017037
v -0.042909 -0.063739 0.016628
v -0.034559 -0.049231 0.016672
v 0.038003 0.076842 0.017056
v 0.076817 0.009822 0.017261
v 0.060078 0.009800 0.017172
v -0.046565 -0.061634 0.016609
v -0.085379 0.005385 0.016404
v -0.068640 0.005408 0.016492
v -0.038260 0.062243 -0.002611
v -0.046649 0.076728 -0.002655
v -0.085283 0.009605 -0.002859
v 0.038291 -0.061521 -0.002206
v 0.076924 0.005603 -0.002002
v 0.060185 0.005581 -0.002091
v 0.026099 0.064439 -0.002271
v 0.034448 0.078947 -0.002227
v -0.042998 0.078843 -0.002636
v -0.034457 -0.049231 -0.002591
v -0.042807 -0.063739 -0.002635
v 0.034640 -0.063635 -0.002226
v 0.060180 0.009800 -0.002091
v 0.076919 0.009822 -0.002002
v 0.038105 0.076842 -0.002208
v -0.068538 0.005408 -0.002771
v -0.085277 0.005385 -0.002859
v -0.046464 -0.061634 -0.002654
v -0.087888 0.005665 -0.000764
v -0.087967 0.005665 0.014280
v -0.047606 -0.064028 0.014493
v 0.025266 -0.047041 0.014878
v -0.033659 -0.047120 0.014567
v -0.033579 -0.047120 -0.000477
v 0.036176 -0.065743 -0.000108
v -0.044360 -0.065851 -0.000534
v -0.044439 -0.065851 0.014510
v 0.028507 -0.045210 -0.000149
v 0.057901 0.005860 0.000007
v 0.057821 0.005860 0.015050
v 0.039258 -0.063911 0.014952
v 0.079432 0.005889 0.015165
v 0.079512 0.005889 0.000121
v 0.057816 0.009514 0.015050
v 0.057896 0.009514 0.000007
v 0.028365 0.060505 -0.000149
v 0.079507 0.009543 0.000121
v 0.079427 0.009543 0.015165
v 0.039066 0.079236 0.014951
v 0.025119 0.062328 0.014878
v 0.025198 0.062328 -0.000166
v -0.033726 0.062249 -0.000477
v 0.035979 0.081058 -0.000109
v 0.035899 0.081058 0.014935
v -0.044636 0.080951 0.014509
v -0.036967 0.060418 0.014550
v -0.036888 0.060418 -0.000494
v -0.066282 0.009348 -0.000649
v -0.047718 0.079119 -0.000551
v -0.047798 0.079119 0.014492
v -0.087972 0.009319 0.014280
v -0.066356 0.005694 0.014394
v -0.066277 0.005694 -0.000649
v -0.036746 -0.045298 -0.000493
v 0.026251 -0.049150 -0.002270
v 0.029902 -0.047035 -0.002251
v -0.038216 -0.047126 0.016653
v -0.036826 -0.045298 0.014550
v -0.068645 0.009627 0.016492
v -0.066361 0.009348 0.014394
v -0.044556 0.080951 -0.000535
v 0.039338 -0.063911 -0.000091
v 0.029800 -0.047035 0.017012
v 0.026149 -0.049150 0.016993
v -0.033806 0.062249 0.014566
v 0.025997 0.064439 0.016992
v 0.029653 0.062334 0.017011
v 0.028286 0.060505 0.014894
v -0.068544 0.009627 -0.002771
v -0.087892 0.009319 -0.000764
v -0.047526 -0.064028 -0.000550
v 0.039146 0.079236 -0.000092
v 0.029755 0.062334 -0.002252
v -0.038114 -0.047126 -0.002610
v 0.036096 -0.065743 0.014936
v 0.028428 -0.045210 0.014895
v -0.034609 0.064357 -0.002592
v 0.025345 -0.047041 -0.000165
vt 0.720278 0.009079
vt 0.937587 0.144337
vt 0.890619 0.173571
vt 0.706609 0.517171
vt 0.706609 0.575640
vt 0.489300 0.440382
vt 0.897454 0.186334
vt 0.944423 0.157100
vt 0.944423 0.427618
vt 0.482464 0.427619
vt 0.482464 0.157101
vt 0.529432 0.186335
vt 0.937588 0.440381
vt 0.720279 0.575640
vt 0.720279 0.517172
vt 0.489299 0.144338
vt 0.706608 0.009078
vt 0.706608 0.067547
vt 0.414990 0.411148
vt 0.461959 0.440382
vt 0.244649 0.575641
vt 0.013670 0.144338
vt 0.230980 0.009079
vt 0.230980 0.067547
vt 0.421826 0.186335
vt 0.468794 0.157101
vt 0.468794 0.427619
vt 0.053803 0.398383
vt 0.006835 0.427619
vt 0.006835 0.157100
vt 0.244650 0.067547
vt 0.244650 0.009078
vt 0.461959 0.144338
vt 0.230979 0.517172
vt 0.230979 0.575641
vt 0.013670 0.440381
vt 0.006835 0.595772
vt 0.055577 0.595772
vt 0.055577 0.877078
vt 0.159895 0.775728
vt 0.159896 0.953974
vt 0.111155 0.953974
vt 0.951258 0.743618
vt 0.951258 0.500000
vt 0.999999 0.500000
vt 0.111154 0.762965
vt 0.111154 0.584719
vt 0.159896 0.584719
vt 0.999999 0.756381
vt 1.000000 1.000000
vt 0.951258 1.000000
vt 0.333461 0.801593
vt 0.284719 0.801593
vt 0.284720 0.595772
vt 0.159896 0.595772
vt 0.208637 0.595772
vt 0.208637 0.877079
vt 0.062412 0.953973
vt 0.062412 0.775728
vt 0.951258 0.256382
vt 0.062412 0.762965
vt 0.062412 0.584719
vt 1.000000 0.243619
vt 0.951258 0.243619
vt 0.951258 0.000000
vt 0.271049 0.801593
vt 0.222308 0.801593
vt 0.222308 0.595772
vt 0.053804 0.186334
vt 0.060639 0.173572
vt 0.066558 0.178396
vt 0.536268 0.173572
vt 0.542187 0.178396
vt 0.720279 0.067547
vt 0.719363 0.075486
vt 0.707524 0.075485
vt 0.409071 0.406323
vt 0.414991 0.395270
vt 0.475629 0.433013
vt 0.000000 0.151707
vt 0.005920 0.140653
vt 0.536268 0.411147
vt 0.529433 0.398384
vt 0.536268 0.395270
vt 0.890620 0.189448
vt 0.897455 0.398384
vt 0.890620 0.411147
vt 0.884700 0.406323
vt 0.707524 0.509233
vt 0.719363 0.509233
vt 0.244649 0.517172
vt 0.231895 0.509233
vt 0.243733 0.584719
vt 0.481549 0.444066
vt 0.243734 0.075486
vt 0.231896 0.000000
vt 0.243734 0.000000
vt 0.060638 0.395270
vt 0.066558 0.406323
vt 0.005919 0.444066
vt 0.000000 0.433012
vt 0.414991 0.189450
vt 0.409071 0.178396
vt 0.469710 0.140654
vt 0.475629 0.151707
vt 0.945338 0.140653
vt 0.951258 0.151706
vt 0.707524 0.000000
vt 0.719362 0.000000
vt 0.719363 0.584719
vt 0.951258 0.433012
vt 0.215473 0.871684
vt 0.414991 0.173572
vt 0.060638 0.411147
vt 0.006835 0.584719
vt 0.055577 0.584719
vt 0.231895 0.075486
vt 0.542187 0.406323
vt 0.707525 0.584719
vt 0.271049 0.584719
vt 0.271049 0.595772
vt 1.000000 0.743618
vt 0.951258 0.756381
vt 0.421825 0.398385
vt 0.284719 0.812646
vt 0.277884 0.592658
vt 0.890620 0.395269
vt 0.208637 0.584719
vt 0.284720 0.584719
vt 0.333461 0.584719
vt 0.243734 0.509233
vt 0.884700 0.178396
vt 0.208638 0.888131
vt 0.159896 0.888131
vt 0.469709 0.444066
vt 0.215473 0.592658
vt 0.277884 0.804707
vt 0.062412 0.871684
vt 0.000000 0.601166
vt 0.006835 0.877078
vt 0.222307 0.812646
vt 0.055577 0.888131
vt 0.006835 0.888131
vt 0.060638 0.189449
vt 0.536267 0.189449
vt 0.111154 0.775728
vt 0.159896 0.762965
vt 0.333462 0.595773
vt 0.159896 0.877079
vt 1.000000 0.256382
vt 1.000000 0.000000
vt 0.231895 0.584719
vt 0.481548 0.140653
vt 0.945339 0.444065
vt 0.215473 0.601166
vt 0.333462 0.855141
vt 0.340161 0.584719
vt 0.340161 0.860730
vt 0.222308 0.584719
vt 0.333461 0.812646
vt 0.346996 0.584719
vt 0.346996 0.796768
vt 0.340161 0.587833
vt 0.062412 0.601166
vt 0.271049 0.812645
vn 0.005300 0.000000 -1.000000
vn -0.005300 -0.000000 1.000000
vn 0.865300 0.501200 0.004600
vn 0.001300 -1.000000 0.000000
vn -0.001300 1.000000 -0.000000
vn 0.866700 -0.498800 0.004600
vn -0.866700 0.498800 -0.004600
vn -0.865300 -0.501200 -0.004600
vn 0.337100 -0.588700 0.734700
vn -0.335500 -0.589600 -0.734700
vn -0.676400 -0.000900 -0.736500
vn -0.344800 0.588700 0.731100
vn 0.311800 -0.545300 0.778100
vn -0.319900 0.545400 0.774700
vn 0.344800 -0.588800 -0.731100
vn -0.337100 0.588700 -0.734700
vn 0.343300 0.589600 -0.731100
vn 0.684200 0.000900 -0.729300
vn -0.684200 -0.000900 0.729300
vn 0.626100 0.000800 0.779700
vn -0.311700 0.545300 -0.778100
vn 0.676400 0.000900 0.736500
vn -0.634300 -0.000800 0.773100
vn -0.343300 -0.589600 0.731100
vn 0.310200 0.546200 0.778100
vn 0.335500 0.589600 0.734700
vn -0.318400 -0.546200 0.774800
vn 0.319900 -0.545400 -0.774800
vn 0.634300 0.000800 -0.773100
vn -0.626100 -0.000900 -0.779700
vn 0.318500 0.546200 -0.774700
vn -0.310300 -0.546200 -0.778100
vn -0.608200 -0.354400 -0.710300
vn -0.615600 -0.354400 0.703900
vn 1.000000 0.001300 0.005300
vn 0.002800 0.707100 -0.707100
vn -0.004700 0.707100 0.707100
vn 0.609100 -0.352700 0.710300
vn 0.616600 -0.352700 -0.703900
vn -0.609100 0.352700 -0.710300
vn -0.616500 0.352700 0.703900
vn -0.498800 -0.866700 -0.002600
vn -0.501100 0.865400 -0.002600
vn 1.000000 0.001400 0.005300
vn 0.615600 0.354400 -0.703900
vn 0.608200 0.354400 0.710300
vn -1.000000 -0.001300 -0.005300
vn 0.004700 -0.707100 -0.707100
vn -0.002800 -0.707100 0.707100
vn 0.498800 0.866700 0.002600
vn -0.616600 0.352700 0.703900
vn -0.609100 0.352700 -0.710400
vn 0.616600 -0.352700 -0.703800
vn -0.501200 0.865300 -0.002600
vn 0.501200 -0.865400 0.002700
vn 0.615600 0.354400 -0.703800
vn -0.676500 -0.000900 -0.736500
vn -0.319900 0.545300 0.774800
vn 0.344800 -0.588700 -0.731100
vn 0.343200 0.589600 -0.731100
vn 0.626100 0.000900 0.779700
vn -0.311700 0.545400 -0.778100
vn -0.634300 -0.000900 0.773100
vn -0.343200 -0.589600 0.731100
vn 0.310300 0.546200 0.778100
vn -0.318500 -0.546200 0.774700
vn -0.626100 -0.000800 -0.779700
vn -0.615600 -0.354400 0.703800
vn 0.609100 -0.352800 0.710300
vn 0.615700 0.354400 -0.703800
vn 0.608100 0.354400 0.710400
vn -1.000000 -0.001400 -0.005300
vn -0.501200 0.865300 -0.002700
vn 0.501200 -0.865300 0.002600
vn 0.608100 0.354400 0.710300
vn 0.004700 -0.707200 -0.707000
usemtl Material.006
s off
f 1/1/1 2/2/1 3/3/1
f 4/4/1 5/5/1 6/6/1
f 7/7/1 8/8/1 9/9/1
f 10/10/1 11/11/1 12/12/1
f 13/13/1 14/14/1 15/15/1
f 16/16/1 17/17/1 18/18/1
f 19/19/2 20/20/2 21/21/2
f 22/22/2 23/23/2 24/24/2
f 25/25/2 26/26/2 27/27/2
f 28/28/2 29/29/2 30/30/2
f 31/31/2 32/32/2 33/33/2
f 34/34/2 35/35/2 36/36/2
f 37/37/3 38/38/3 39/39/3
f 40/40/4 41/41/4 42/42/4
f 43/43/5 44/44/5 45/45/5
f 46/46/6 47/47/6 48/48/6
f 49/49/7 50/50/7 51/51/7
f 52/52/3 53/53/3 54/54/3
f 55/55/8 56/56/8 57/57/8
f 58/42/5 59/58/5 60/59/5
f 61/45/4 62/44/4 63/60/4
f 64/46/7 65/61/7 66/62/7
f 67/63/6 68/64/6 69/65/6
f 70/66/8 71/67/8 72/68/8
f 73/69/9 74/70/9 46/71/9
f 12/12/10 75/72/10 76/73/10
f 77/74/11 78/75/11 70/76/11
f 19/19/12 65/77/12 60/78/12
f 20/20/13 27/27/13 79/79/13
f 30/30/14 43/80/14 80/81/14
f 81/82/15 82/83/15 40/84/15
f 3/3/16 7/7/16 83/85/16
f 84/86/17 85/87/17 86/88/17
f 4/4/18 48/89/18 52/90/18
f 87/91/19 34/34/19 71/92/19
f 35/35/20 21/21/20 88/93/20
f 10/10/21 6/6/21 49/94/21
f 24/24/22 31/31/22 53/95/22
f 23/23/23 51/96/23 55/97/23
f 28/28/24 42/98/24 72/99/24
f 36/36/25 89/100/25 44/101/25
f 25/25/26 59/102/26 54/103/26
f 33/33/27 90/104/27 61/105/27
f 2/2/28 68/106/28 63/107/28
f 17/17/29 38/108/29 69/109/29
f 5/5/30 14/14/30 56/110/30
f 16/16/31 11/11/31 45/105/31
f 13/13/32 9/9/32 62/111/32
f 13/112/33 57/57/33 56/56/33
f 77/74/1 18/18/1 17/17/1
f 9/9/1 13/13/1 85/87/1
f 6/6/1 10/10/1 82/83/1
f 11/11/1 16/16/1 75/72/1
f 4/4/1 15/15/1 14/14/1
f 32/32/34 55/97/34 90/104/34
f 21/21/2 35/35/2 34/34/2
f 26/26/2 25/25/2 91/113/2
f 74/70/2 73/69/2 30/30/2
f 29/29/2 28/28/2 92/114/2
f 24/24/2 23/23/2 32/32/2
f 37/37/35 88/115/35 69/116/35
f 10/10/36 93/79/36 45/105/36
f 29/29/37 44/101/37 43/80/37
f 24/24/38 47/117/38 46/71/38
f 81/82/39 94/118/39 48/89/39
f 5/5/40 50/119/40 49/94/40
f 22/22/41 80/81/41 51/96/41
f 41/120/42 76/121/42 72/68/42
f 93/122/43 49/49/43 80/123/43
f 19/19/2 95/124/2 27/27/2
f 3/3/1 2/2/1 8/8/1
f 47/125/44 53/53/44 52/52/44
f 15/15/45 52/90/45 86/88/45
f 91/126/46 54/54/46 53/53/46
f 25/25/37 95/124/37 60/78/37
f 7/7/36 84/86/36 58/127/36
f 50/128/47 56/56/47 55/55/47
f 8/8/48 63/107/48 62/111/48
f 26/26/49 61/105/49 79/79/49
f 54/54/50 59/129/50 58/130/50
f 87/91/51 66/131/51 65/77/51
f 77/74/52 3/3/52 64/132/52
f 57/57/42 62/133/42 61/134/42
f 2/2/53 1/1/53 69/109/53
f 20/20/38 67/135/38 88/93/38
f 60/59/54 65/61/54 64/46/54
f 92/136/34 72/68/34 71/67/34
f 18/137/33 70/66/33 76/121/33
f 63/60/55 68/64/55 67/63/55
f 16/138/56 39/39/56 38/38/56
f 35/139/46 37/37/46 89/140/46
f 66/141/47 71/67/47 70/66/47
f 39/39/50 45/142/50 44/143/50
f 73/69/49 96/144/49 42/98/49
f 12/12/48 41/145/48 40/84/48
f 40/40/55 96/146/55 46/46/55
f 77/74/1 1/1/1 3/3/1
f 81/82/1 4/4/1 6/6/1
f 84/86/1 7/7/1 9/9/1
f 82/83/1 10/10/1 12/12/1
f 85/87/1 13/13/1 15/15/1
f 75/72/1 16/16/1 18/18/1
f 87/91/2 19/19/2 21/21/2
f 74/70/2 22/22/2 24/24/2
f 95/124/2 25/25/2 27/27/2
f 73/69/2 28/28/2 30/30/2
f 91/113/2 31/31/2 33/33/2
f 92/114/2 34/34/2 36/36/2
f 89/140/3 37/37/3 39/39/3
f 96/146/4 40/40/4 42/42/4
f 93/122/5 43/43/5 45/45/5
f 94/147/6 46/46/6 48/48/6
f 80/123/7 49/49/7 51/51/7
f 86/148/3 52/52/3 54/54/3
f 90/149/8 55/55/8 57/57/8
f 83/146/5 58/42/5 60/59/5
f 79/150/4 61/45/4 63/60/4
f 78/47/7 64/46/7 66/62/7
f 88/151/6 67/63/6 69/65/6
f 76/121/8 70/66/8 72/68/8
f 96/144/9 73/69/9 46/71/9
f 41/145/10 12/12/10 76/73/10
f 18/18/57 77/74/57 70/76/57
f 95/124/12 19/19/12 60/78/12
f 67/135/13 20/20/13 79/79/13
f 22/22/58 30/30/58 80/81/58
f 94/118/59 81/82/59 40/84/59
f 64/132/16 3/3/16 83/85/16
f 58/127/60 84/86/60 86/88/60
f 15/15/18 4/4/18 52/90/18
f 66/131/19 87/91/19 71/92/19
f 37/152/61 35/35/61 88/93/61
f 93/79/62 10/10/62 49/94/62
f 47/117/22 24/24/22 53/95/22
f 32/32/63 23/23/63 55/97/63
f 92/114/64 28/28/64 72/99/64
f 29/29/65 36/36/65 44/101/65
f 91/113/26 25/25/26 54/103/26
f 26/26/66 33/33/66 61/105/66
f 8/8/28 2/2/28 63/107/28
f 1/1/29 17/17/29 69/109/29
f 50/119/67 5/5/67 56/110/67
f 39/153/31 16/16/31 45/105/31
f 57/154/32 13/13/32 62/111/32
f 14/155/33 13/112/33 56/56/33
f 1/1/1 77/74/1 17/17/1
f 84/86/1 9/9/1 85/87/1
f 81/82/1 6/6/1 82/83/1
f 12/12/1 11/11/1 75/72/1
f 5/5/1 4/4/1 14/14/1
f 33/156/68 32/157/68 90/158/68
f 87/91/2 21/21/2 34/34/2
f 33/33/2 26/26/2 91/113/2
f 22/22/2 74/70/2 30/30/2
f 36/36/2 29/29/2 92/114/2
f 31/31/2 24/24/2 32/32/2
f 38/38/35 37/37/35 69/116/35
f 11/11/36 10/10/36 45/105/36
f 30/30/37 29/29/37 43/80/37
f 74/70/69 24/24/69 46/71/69
f 4/4/53 81/82/53 48/89/53
f 6/6/40 5/5/40 49/94/40
f 23/23/51 22/22/51 51/96/51
f 42/159/42 41/120/42 72/68/42
f 43/43/43 93/122/43 80/123/43
f 20/20/2 19/19/2 27/27/2
f 7/7/1 3/3/1 8/8/1
f 48/160/44 47/125/44 52/52/44
f 85/161/70 15/162/70 86/163/70
f 31/31/71 91/113/71 53/95/71
f 59/102/37 25/25/37 60/78/37
f 83/85/36 7/7/36 58/127/36
f 51/48/72 50/128/72 55/55/72
f 9/9/48 8/8/48 62/111/48
f 27/27/49 26/26/49 79/79/49
f 86/148/50 54/54/50 58/130/50
f 19/19/51 87/91/51 65/77/51
f 78/75/52 77/74/52 64/132/52
f 90/149/42 57/57/42 61/134/42
f 68/106/39 2/2/39 69/109/39
f 21/21/38 20/20/38 88/93/38
f 83/146/73 60/59/73 64/46/73
f 34/34/34 92/114/34 71/92/34
f 75/126/33 18/137/33 76/121/33
f 79/150/74 63/60/74 67/63/74
f 17/164/56 16/138/56 38/38/56
f 36/36/75 35/35/75 89/100/75
f 78/165/47 66/141/47 70/66/47
f 89/140/50 39/39/50 44/143/50
f 28/28/49 73/69/49 42/98/49
f 82/83/76 12/12/76 40/84/76
f 94/147/55 40/40/55 46/46/55
